:FULLY-SPECIFIED
:FORCE-ALL-JOINTS-BE-3DOF
:DEGREES
2650
root -1.2416 15.1611 -28.6852 162.44 -75.0246 -165.583
lfemur -54.5835 25.2453 -12.7199
ltibia 68.0674 -0 0
lfoot 0.883613 7.2725 -0.0317716
ltoes -29.2524 0 0
rfemur -36.5396 -17.5369 24.7282
rtibia 69.0471 -0 0
rfoot -23.8422 -4.86545 0.114266
rtoes -3.75002 0 0
lowerback 19.1039 4.00308 -0.885953
upperback -0.111178 5.16503 1.13477
thorax -11.0338 2.48427 0.303606
lowerneck -2.57026 9.22757 -1.12252
upperneck 3.92942 12.312 0.977549
head 1.51437 6.14632 0.73488
lclavicle 4.41505e-14 1.13024e-14 -1.57416e-30
lhumerus 70.9878 -34.9413 39.071
lradius 107.164 -0 0
lwrist -27.3302 0 0
lhand -36.9727 27.8644 0.059844
lfingers 7.12502 -0 0
lthumb -10.0485 57.6109 0.0576504
rclavicle 4.41505e-14 1.13024e-14 -1.57416e-30
rhumerus 2.651 75.293 -73.4049
rradius 99.263 -0 0
rwrist -33.0771 0 0
rhand -0.129334 -31.8465 0.00951709
rfingers 7.12502 -0 0
rthumb 25.4666 -60.1685 0.00876264
2651
root -1.34371 15.1321 -28.6546 162.988 -74.3804 -166.148
lfemur -54.6364 25.7063 -12.591
ltibia 67.8484 -0 0
lfoot 1.09449 7.05127 -0.0378119
ltoes -28.8287 0 0
rfemur -36.4507 -17.6362 24.6059
rtibia 69.4413 -0 0
rfoot -24.0968 -5.22279 0.142421
rtoes -3.97916 0 0
lowerback 19.0581 4.05896 -0.831562
upperback -0.159956 5.25574 1.14336
thorax -11.0592 2.52495 0.260168
lowerneck -2.56889 9.29379 -1.00103
upperneck 3.99536 12.3952 0.950932
head 1.54338 6.18919 0.715986
lclavicle 4.29713e-14 1.04787e-14 -1.96533e-30
lhumerus 68.6685 -34.5731 40.9225
lradius 107.228 -0 0
lwrist -27.1172 0 0
lhand -37.1533 27.9925 0.068195
lfingers 7.12502 -0 0
lthumb -10.2229 57.7313 0.0657254
rclavicle 4.29713e-14 1.04787e-14 -1.96533e-30
rhumerus -0.069873 75.1293 -75.549
rradius 99.9046 -0 0
rwrist -34.6903 0 0
rhand 0.0272315 -31.7179 0.0108358
rfingers 7.12502 -0 0
rthumb 25.6167 -60.0204 0.00962007
2652
root -1.453 15.1008 -28.6211 163.54 -73.6765 -166.719
lfemur -54.6995 26.2024 -12.4564
ltibia 67.6236 -0 0
lfoot 1.31871 6.81325 -0.0432748
ltoes -28.3777 0 0
rfemur -36.3596 -17.7452 24.4771
rtibia 69.8676 -0 0
rfoot -24.3705 -5.60318 0.170987
rtoes -4.22284 0 0
lowerback 19.0113 4.11882 -0.773544
upperback -0.211335 5.35279 1.15263
thorax -11.0868 2.56843 0.213866
lowerneck -2.56656 9.36636 -0.870426
upperneck 4.06395 12.4866 0.921652
head 1.57362 6.23623 0.695528
lclavicle 4.16183e-14 9.59387e-15 -2.36302e-30
lhumerus 66.2424 -34.1106 42.8577
lradius 107.308 -0 0
lwrist -26.8915 0 0
lhand -37.3336 28.1057 0.0753611
lfingers 7.12502 -0 0
lthumb -10.3967 57.8366 0.0726616
rclavicle 4.16183e-14 9.59387e-15 -2.36302e-30
rhumerus -2.89417 74.9365 -77.7607
rradius 100.598 -0 0
rwrist -36.4177 0 0
rhand 0.195359 -31.5801 0.0117847
rfingers 7.12502 -0 0
rthumb 25.7779 -59.8618 0.0100075
2653
root -1.56876 15.0674 -28.5853 164.085 -72.9203 -167.282
lfemur -54.7706 26.73 -12.3165
ltibia 67.393 -0 0
lfoot 1.55462 6.55997 -0.047978
ltoes -27.9022 0 0
rfemur -36.266 -17.8627 24.3422
rtibia 70.3223 -0 0
rfoot -24.6614 -6.00489 0.199406
rtoes -4.48007 0 0
lowerback 18.9632 4.18227 -0.712242
upperback -0.26517 5.45554 1.16249
thorax -11.1164 2.61444 0.165001
lowerneck -2.5634 9.44441 -0.731679
upperneck 4.13513 12.5849 0.890123
head 1.60507 6.28686 0.673701
lclavicle 4.01045e-14 8.6535e-15 -2.75903e-30
lhumerus 63.729 -33.5478 44.8574
lradius 107.4 -0 0
lwrist -26.6541 0 0
lhand -37.5129 28.2049 0.081358
lfingers 7.12502 -0 0
lthumb -10.5698 57.9276 0.0784713
rclavicle 4.01045e-14 8.6535e-15 -2.75903e-30
rhumerus -5.79617 74.7099 -80.0169
rradius 101.338 -0 0
rwrist -38.2481 0 0
rhand 0.373566 -31.4338 0.0122976
rfingers 7.12502 -0 0
rthumb 25.9488 -59.6936 0.00986174
